<svg xmlns="http://www.w3.org/2000/svg" enable-background="new 0 0 2500 2500" viewBox="0 0 2500 2500"><path fill="#030047" d="M2246.01,2232H277.43c-2.2,0-3.99-1.79-3.99-3.99c0-2.2,1.79-3.99,3.99-3.99h1968.58
			c2.2,0,3.99,1.79,3.99,3.99C2250,2230.21,2248.21,2232,2246.01,2232z"/><path fill="#030047" d="M1676.64,667.79c0,0-65.12,12.36-101.82,69.05c-36.7,56.69-37.29,105.3-70.44,121.7
									c-33.15,16.4-55.65,14.95-79.32,51.29c-23.68,36.34,6.51,77.77-11.25,99.58s-89.98,34.16-94.72,128.65
									c-4.74,94.49,44.4,170.08,130.23,204.97c85.84,34.89,345.12-97.4,345.12-97.4l-76.36-451.37L1676.64,667.79z"/><path fill="#fff" d="M1261.72,1320.7l-139.01,111.39L983.92,890.09l-282.34,47.73l178.26,704.98
										c17.71,70.05,68.22,127.21,135.57,153.41l0,0c77.35,30.09,165,14.81,227.6-39.67l235.6-205.03"/><path fill="#030047" d="M1096.58,1815.47c-27.77,0-55.75-5.1-82.61-15.55c-68.41-26.61-120-84.99-137.99-156.15L697.71,938.79
										c-0.27-1.08-0.08-2.23,0.53-3.16c0.61-0.93,1.58-1.57,2.68-1.75l282.34-47.73c2.03-0.34,4.02,0.93,4.53,2.94l137.26,536.01
										l134.18-107.52c1.71-1.37,4.23-1.1,5.61,0.62c1.38,1.72,1.1,4.23-0.62,5.61l-139.01,111.39c-1.06,0.85-2.48,1.09-3.76,0.67
										c-1.29-0.43-2.27-1.48-2.6-2.8L980.97,894.63l-274.45,46.39l177.2,700.79c17.36,68.66,67.13,124.99,133.14,150.67
										c76.22,29.65,161.86,14.71,223.54-38.96l235.6-205.03c1.65-1.45,4.18-1.27,5.63,0.39c1.45,1.66,1.27,4.18-0.39,5.63
										l-235.6,205.03C1203.46,1796.24,1150.44,1815.47,1096.58,1815.47z"/><path fill="#605efd" d="M1566.93,1369.24l-150.78,303.27l-136.63-153.02l-48.42-54.22l-75.76-84.81l187.23-143.86
										c27.51-22.67,63.37-32.56,98.64-27.08l68.05,10.53L1566.93,1369.24z"/><path fill="#fff" d="M1308.83,1480.71c0,18.46-12.4,34-29.32,38.79l-48.42-54.22c6.01-14.69,20.48-25.01,37.3-25.01
										C1290.74,1440.27,1308.83,1458.36,1308.83,1480.71z" opacity=".4"/><path fill="#030047" d="M1416.13,1676.52c-1.13,0-2.21-0.48-2.98-1.33l-260.82-292.06c-0.74-0.83-1.1-1.93-1-3.03
										c0.1-1.11,0.67-2.12,1.54-2.79l187.23-143.86c1.76-1.35,4.26-1.01,5.6,0.73c1.34,1.75,1.01,4.25-0.73,5.6l-183.82,141.24
										l254.03,284.46l148.16-297.99c0.98-1.97,3.36-2.78,5.35-1.8c1.97,0.98,2.78,3.38,1.8,5.35l-150.79,303.27
										c-0.59,1.18-1.73,2-3.04,2.18C1416.48,1676.51,1416.31,1676.52,1416.13,1676.52z"/><polygon fill="#030047" points="1203.69 2228.01 1285.61 1852.68 1898.06 1925.73 1870.37 2228.01"/><path fill="#605efd" d="M1494.63,1220.05l404.1,13.11c57.33,1.86,100.61,52.67,93.33,109.57l-82.78,647.07l-662.46-58.89
										L1494.63,1220.05z"/><circle cx="1831.95" cy="1860.86" r="48.22" fill="#fff" opacity=".4"/><path fill="#030047" d="M1246.81,1934.88c-0.44,0-0.88-0.07-1.31-0.22c-2.08-0.73-3.18-3-2.45-5.08l206.07-591.12
										c0.72-2.08,3-3.18,5.08-2.46c2.08,0.73,3.18,3,2.45,5.08l-206.07,591.12C1250.01,1933.85,1248.47,1934.88,1246.81,1934.88z
										"/><path fill="#fff" d="M1627.02,1244l8.18-182.6l169.92-35.41l6.37,193.85c0.56,16.99-5.82,33.53-17.89,45.5
												c-19.76,19.59-54.82,44.62-103.35,41.88C1626.97,1303.66,1627.02,1244,1627.02,1244z"/><path fill="#030047" d="M1697.63,1311.43c-2.5,0-5.03-0.07-7.61-0.22c-66.28-3.74-66.99-66.58-66.99-67.21
												c0-0.06,0-0.12,0.01-0.17l8.18-182.6c0.08-1.82,1.39-3.36,3.17-3.73l169.92-35.41c1.16-0.25,2.36,0.04,3.28,0.77
												c0.92,0.73,1.48,1.83,1.52,3.01l6.37,193.85c0.59,18.19-6.35,35.86-19.07,48.47
												C1776.19,1288.24,1742.99,1311.43,1697.63,1311.43z M1631.01,1244.08c0.03,3.25,1.38,55.88,59.46,59.16
												c46.34,2.59,80.13-20.71,100.33-40.73c11.15-11.05,17.23-26.56,16.71-42.54l-6.21-189.11l-162.24,33.81L1631.01,1244.08z
												"/><path fill="#fff" d="M1807.15,1050.69c80.6-87.09,62.45-229.46,62.45-229.46L1628,720.26
													c-4.49,3.68-95.59,77.82-111.2,226.97c-12.86,122.88,104.9,192.06,230.9,145.74"/><path fill="#030047" d="M1669.35,1111.48c-39.35,0-75.76-11.36-104.31-33.58c-39.31-30.6-57.85-77.15-52.21-131.09
													c15.28-146.02,102.67-221.48,112.59-229.6c1.14-0.94,2.76-1.21,4.12-0.64l241.6,100.96c1.32,0.55,2.24,1.76,2.42,3.18
													c0.18,1.44,17.45,145.24-63.48,232.68c-1.51,1.62-4.03,1.71-5.64,0.22c-1.62-1.5-1.71-4.02-0.22-5.64
													c72.89-78.75,63.48-205.49,61.66-223.98l-237.19-99.11c-15.63,13.4-93.69,86.56-107.93,222.77
													c-5.35,51.09,12.12,95.11,49.18,123.96c45.06,35.07,111,41.65,176.38,17.62c2.06-0.77,4.36,0.3,5.12,2.37
													c0.76,2.07-0.3,4.36-2.37,5.12C1722.17,1106.61,1695.13,1111.48,1669.35,1111.48z"/><path fill="#030047" d="M1817.34,913.85c0,0-127.56-84.7-176.99-168.29c0,0-45.98,7.51-57.57,24.7
													c0,0-14.39-79.94,67.02-102.47c81.41-22.53,268.2,39.98,296.55,151.91c18.64,73.6,16.65,236.89,13.09,340.09
													c-1.72,50.09-39.57,74.76-89.61,71.99l-57.58-1.43l-10.56-172.93C1846.87,1016.09,1835.47,965.52,1817.34,913.85z"/><ellipse cx="1589.16" cy="887" fill="#030047" rx="16.5" ry="11.07" transform="rotate(-72.061 1589.219 886.977)"/><path fill="#fff" d="M1582.78,853.41c11.28-3.29,23.88,1.18,31.96,11.32"/><path fill="#030047" d="M1614.74,868.73c-1.17,0-2.33-0.52-3.12-1.5c-7.09-8.9-17.97-12.82-27.72-9.98
													c-2.13,0.62-4.33-0.6-4.95-2.71c-0.62-2.12,0.6-4.33,2.71-4.95c12.88-3.75,27.09,1.22,36.2,12.67
													c1.37,1.72,1.09,4.23-0.64,5.61C1616.49,868.44,1615.61,868.73,1614.74,868.73z"/><ellipse cx="1684.09" cy="928.87" fill="#030047" rx="16.5" ry="11.07" transform="rotate(-81.077 1684.036 928.877)"/><path fill="#fff" d="M1676.69,895.49c11.18-3.63,23.9,0.45,32.29,10.34"/><path fill="#030047" d="M1708.97,909.82c-1.13,0-2.25-0.48-3.04-1.41c-7.36-8.68-18.37-12.26-28.01-9.13
														c-2.11,0.69-4.34-0.47-5.02-2.56c-0.68-2.1,0.46-4.35,2.56-5.03c12.75-4.14,27.11,0.4,36.56,11.56
														c1.42,1.68,1.22,4.2-0.47,5.62C1710.8,909.51,1709.89,909.82,1708.97,909.82z"/><path fill="#fff" d="M1808.85,920.34c0,0,55.47-45.58,82.79-32.81c27.32,12.77,6.9,111.48-27.62,117.55
														c-34.52,6.07-60.27-9.88-60.27-9.88"/><path fill="#030047" d="M1848.11,1010.45c-26.92,0-45.53-11.3-46.45-11.87c-1.88-1.16-2.45-3.61-1.29-5.49
														c1.16-1.88,3.63-2.45,5.49-1.3c0.25,0.15,25,15.06,57.49,9.35c17.49-3.07,32.01-35.58,35.93-65.22
														c3.06-23.13-0.59-40.7-9.31-44.78c-20.56-9.6-63.68,20.05-78.57,32.28c-1.7,1.39-4.22,1.15-5.62-0.55
														c-1.4-1.7-1.15-4.22,0.55-5.62c2.34-1.93,57.75-47.01,87.02-33.34c12.31,5.75,17.48,25.59,13.85,53.05
														c-4.35,32.85-20.33,68.15-42.46,72.04C1858.91,1010.02,1853.35,1010.45,1848.11,1010.45z"/><path fill="#030047" d="M1864.49,961.62c-0.68,0-1.37-0.18-2.01-0.54c-1.9-1.11-2.55-3.55-1.44-5.46
													c3.13-5.37,5.18-11.46,5.91-17.62c0.44-3.58,0.04-6.03-1.17-7.28c-0.86-0.88-2.4-1.34-4.02-1.2
													c-1.65,0.15-3.47,0.85-5.54,2.15c-3.08,1.92-5.78,4.52-7.81,7.51c-1.24,1.82-3.72,2.3-5.54,1.06
													c-1.82-1.24-2.3-3.72-1.05-5.54c2.65-3.9,6.17-7.28,10.18-9.79c3.16-1.98,6.13-3.07,9.07-3.33
													c3.96-0.35,7.91,0.98,10.45,3.59c3.02,3.11,4.12,7.62,3.37,13.8c-0.86,7.22-3.26,14.38-6.93,20.68
													C1867.21,960.91,1865.87,961.62,1864.49,961.62z"/><path fill="#fff" d="M1627.02,917.03c-7.03,11.13-14.06,22.26-21.09,33.39c-4.24,6.71-8.57,13.71-8.88,21.42
													c-0.31,7.71,4.63,16.35,13.56,18.9"/><path fill="#030047" d="M1610.61,994.73c-0.36,0-0.73-0.05-1.1-0.15c-11.28-3.22-16.81-13.95-16.45-22.9
													c0.36-8.92,5.21-16.61,9.5-23.39l21.08-33.39c1.18-1.86,3.64-2.42,5.5-1.24c1.87,1.18,2.42,3.64,1.24,5.5l-21.08,33.39
													c-3.75,5.93-8,12.66-8.27,19.45c-0.23,5.68,3.43,12.84,10.67,14.9c2.12,0.6,3.35,2.81,2.74,4.93
													C1613.95,993.58,1612.35,994.73,1610.61,994.73z"/><path fill="#030047" d="M1643.85,1043.38c-7.11,0-14.21-1.55-20.68-4.63c-1.99-0.95-2.84-3.33-1.89-5.32
													c0.95-1.99,3.31-2.84,5.32-1.89c9.48,4.51,20.59,5.09,30.48,1.62c9.89-3.47,18.2-10.88,22.77-20.32
													c0.96-1.98,3.34-2.81,5.33-1.85c1.98,0.96,2.81,3.35,1.85,5.33c-5.49,11.32-15.44,20.2-27.31,24.37
													C1654.61,1042.49,1649.22,1043.38,1643.85,1043.38z"/><path fill="#fff" d="M1186.16,785.48H318.36c-35.55,0-64.37,28.82-64.37,64.37v1110.38c0,35.55,28.82,64.37,64.37,64.37
							h867.81c35.55,0,64.37-28.82,64.37-64.37V849.85C1250.53,814.3,1221.71,785.48,1186.16,785.48z"/><path fill="#030047" d="M1186.16,2028.59H318.36c-37.69,0-68.36-30.66-68.36-68.36V849.85c0-37.69,30.67-68.36,68.36-68.36
							h867.81c37.69,0,68.36,30.66,68.36,68.36v1110.38C1254.52,1997.93,1223.85,2028.59,1186.16,2028.59z M318.36,789.47
							c-33.29,0-60.37,27.08-60.37,60.37v1110.38c0,33.29,27.09,60.37,60.37,60.37h867.81c33.29,0,60.38-27.08,60.38-60.37V849.85
							c0-33.29-27.09-60.37-60.38-60.37H318.36z"/><path fill="#e6f3fc" d="M1180.53,785.48H323.99c-38.66,0-70,31.34-70,70v51.95h996.54v-51.95
							C1250.53,816.83,1219.19,785.48,1180.53,785.48z"/><path fill="#030047" d="M1250.53,911.42H253.99c-2.2,0-3.99-1.79-3.99-3.99v-51.95c0-40.8,33.19-73.99,73.99-73.99h856.53
							c40.8,0,73.99,33.19,73.99,73.99v51.95C1254.52,909.64,1252.73,911.42,1250.53,911.42z M257.98,903.44h988.56v-47.96
							c0-36.4-29.61-66.01-66.01-66.01H323.99c-36.4,0-66.01,29.61-66.01,66.01V903.44z"/><circle cx="350.53" cy="850.74" r="18.28" fill="#030047"/><circle cx="410.74" cy="850.74" r="18.28" fill="#030047"/><circle cx="470.94" cy="850.74" r="18.28" fill="#030047"/><circle cx="733.18" cy="1220.05" r="208.81" fill="#ffcc3d"/><circle cx="733.18" cy="1150.39" r="47.95" fill="#fff"/><path fill="#fff" d="M805.93,1329.43c23.04,0,38.14-23.95,28.42-44.83c-17.73-38.12-56.36-64.55-101.18-64.55
						c-44.82,0-83.44,26.43-101.18,64.55c-9.72,20.89,5.39,44.83,28.42,44.83H805.93z"/><path fill="#fff" d="M1019.67,1500.02H484.85c-24.37,0-44.12,19.75-44.12,44.12v49.41c0,24.37,19.76,44.12,44.12,44.12h534.81
						c24.37,0,44.12-19.75,44.12-44.12v-49.41C1063.79,1519.77,1044.04,1500.02,1019.67,1500.02z"/><path fill="#030047" d="M1019.67,1641.66H484.85c-26.53,0-48.11-21.58-48.11-48.11v-49.41c0-26.53,21.58-48.11,48.11-48.11h534.81
						c26.53,0,48.12,21.58,48.12,48.11v49.41C1067.78,1620.08,1046.2,1641.66,1019.67,1641.66z M484.85,1504.01
						c-22.13,0-40.13,18-40.13,40.13v49.41c0,22.13,18,40.13,40.13,40.13h534.81c22.13,0,40.14-18,40.14-40.13v-49.41
						c0-22.13-18-40.13-40.14-40.13H484.85z"/><path fill="#030047" d="M902.11,1723.25h-299.7c-24.37,0-44.12,19.75-44.12,44.12v78.38c0,24.37,19.75,44.12,44.12,44.12h299.7
						c24.37,0,44.12-19.76,44.12-44.12v-78.38C946.23,1743,926.48,1723.25,902.11,1723.25z"/><path fill="#030047" d="M902.11,1893.87H602.41c-26.53,0-48.12-21.58-48.12-48.11v-78.38c0-26.53,21.58-48.11,48.12-48.11h299.69
						c26.53,0,48.12,21.58,48.12,48.11v78.38C950.22,1872.28,928.64,1893.87,902.11,1893.87z M602.41,1727.24
						c-22.13,0-40.14,18-40.14,40.13v78.38c0,22.13,18,40.13,40.14,40.13h299.69c22.13,0,40.14-18,40.14-40.13v-78.38
						c0-22.13-18-40.13-40.14-40.13H602.41z"/><path fill="#fff" d="M630.13,1827.12c-5.13,0-9.18-1.14-12.13-3.43c-2.49-1.9-3.74-4.1-3.74-6.58c0-1.27,0.38-2.33,1.15-3.17
						s1.83-1.26,3.18-1.26c1.82,0,3.16,0.93,4.01,2.79c1.15,2.49,3.76,3.73,7.83,3.73c3.48,0,6.85-0.76,10.1-2.28
						c3.38-1.56,5.07-3.27,5.07-5.13c0-2.55-1.05-4.23-3.16-5.04c-1.5-0.59-4.5-0.93-9.01-1.03c-3.5-0.08-6.64-0.74-9.4-1.97
						c-3.75-1.68-5.59-4.09-5.52-7.22c0.06-3.94,2.16-7.56,6.31-10.85c4.15-3.29,8.72-4.93,13.72-4.93c1.98,0,4.43,0.46,7.34,1.37
						c3.62,1.13,5.43,2.44,5.43,3.91c0,1.05-0.36,1.98-1.09,2.79c-0.81,0.91-1.85,1.37-3.12,1.37c-0.95,0-2.37-0.2-4.27-0.61
						c-1.89-0.41-3.32-0.61-4.29-0.61c-2.61,0.02-5.09,0.65-7.44,1.88c-2.43,1.25-3.64,2.62-3.64,4.1c0,0.77,0.37,1.4,1.11,1.9
						c0.74,0.5,1.84,0.84,3.32,1.05c2.59,0.14,5.17,0.28,7.74,0.42c4.49,0.34,8.04,1.61,10.65,3.79c2.87,2.43,4.31,5.78,4.31,10.07
						c0,5.22-2.97,9.17-8.92,11.86C641.14,1826.1,635.96,1827.12,630.13,1827.12z"/><path fill="#fff" d="M686.13,1789.4c-0.97,0-3.63-0.28-7.98-0.85c-0.28,3.72-0.43,8.67-0.43,14.84l-0.03,13.62
						c2.69-0.06,5.43-0.09,8.22-0.09c1.22,0,2.22,0.41,3.02,1.21c0.8,0.81,1.2,1.78,1.2,2.91s-0.41,2.1-1.23,2.9s-1.84,1.2-3.09,1.2
						c-1.15,0-2.89,0.02-5.21,0.08c-2.32,0.05-4.05,0.08-5.21,0.08c-1.37,0-3.41,0.18-6.14,0.53c-2.73,0.35-4.77,0.53-6.14,0.53
						c-1.24,0-2.27-0.4-3.09-1.2s-1.23-1.76-1.23-2.9c0-1.13,0.43-2.1,1.28-2.91s1.93-1.21,3.23-1.21c1.47,0,3.41-0.15,5.81-0.46
						c-0.04-2.39-0.06-6.96-0.06-13.71c0-5.5,0.2-10.75,0.61-15.75l-6.58,0.18c-1.22,0-2.23-0.39-3.05-1.18
						c-0.82-0.79-1.23-1.77-1.23-2.94c0-1.19,0.39-2.16,1.18-2.91c0.72-0.69,1.62-1.08,2.68-1.18c1.73-0.16,4.72-0.24,8.99-0.24
						c3.84,0,8.79,0.42,14.85,1.27c2.41,0.34,3.62,1.74,3.62,4.19c0,1.3-0.47,2.32-1.4,3.06
						C687.97,1789.09,687.1,1789.4,686.13,1789.4z"/><path fill="#fff" d="M734.08,1807.43c-1.38,6.03-4.15,10.85-8.31,14.47c-4.23,3.64-9.19,5.46-14.87,5.46
						c-5.38,0-9.41-1.42-12.11-4.26c-2.69-2.84-4.03-7.11-4.03-12.79c0-5.18,1.27-10.49,3.82-15.93c2.55-5.44,5.82-9.85,9.83-13.23
						c2.81-2.37,5.82-3.55,9.04-3.55c1.96,0,4.63,0.71,8.01,2.12c4.01,1.68,6.01,3.47,6.01,5.37c0,1.09-0.42,2.07-1.25,2.93
						c-0.83,0.86-1.85,1.29-3.07,1.29c-0.6,0-1.94-0.57-4.02-1.71s-3.97-1.71-5.69-1.71c-1.82,0-4.28,1.96-7.37,5.89
						c-4.51,5.7-6.76,11.88-6.76,18.54c0,3.38,0.49,5.67,1.49,6.89c1.05,1.27,3.08,1.91,6.09,1.91c3.1,0,5.82-0.88,8.16-2.64
						c2.49-1.86,4.33-4.57,5.52-8.13c-4.69,0.36-8.78,1.32-12.26,2.88c-0.63,0.28-1.26,0.42-1.88,0.42c-1.26,0-2.3-0.46-3.13-1.4
						c-0.75-0.83-1.12-1.77-1.12-2.82c0-3.09,3.66-5.26,10.98-6.49c4.13-0.69,8.94-1.03,14.44-1.03c1.21,0,2.23,0.39,3.05,1.18
						c0.82,0.79,1.23,1.76,1.23,2.91C735.9,1805.48,735.29,1806.62,734.08,1807.43z"/><path fill="#fff" d="M785.64,1817.8c0,1.01-0.17,2.61-0.51,4.79c-0.41,2.61-1.88,3.91-4.43,3.91c-1.42,0-3.02-0.8-4.8-2.4
						c-7.79-7.02-16.58-16.86-26.37-29.52c-0.12,5.26-0.18,8.48-0.18,9.68c0,1.6,0.04,4,0.11,7.22c0.07,3.22,0.1,5.62,0.1,7.22
						c0,5.97-1.45,8.95-4.37,8.95c-1.48,0-2.66-0.45-3.55-1.37c-0.79-0.81-1.18-1.79-1.18-2.94c0-0.81,0.07-2.03,0.2-3.67
						c0.13-1.64,0.2-2.86,0.2-3.67c0-1.19,0.04-2.98,0.12-5.37c0.08-2.39,0.12-4.18,0.12-5.37c0-1.27-0.03-3.2-0.09-5.76
						c-0.06-2.57-0.09-4.49-0.09-5.76c0-1.21-0.12-3.02-0.36-5.43c-0.24-2.41-0.36-4.22-0.36-5.43c0-1.21,0.52-2.3,1.56-3.25
						c1.04-0.95,2.23-1.43,3.57-1.43c1.5,0,3.15,1.3,4.97,3.88c9.19,13.11,18.25,23.8,27.19,32.07c0.02-0.65,0.03-2.18,0.03-4.61
						c0-9.97-0.1-16.7-0.3-20.18c-0.04-0.59-0.17-1.68-0.39-3.28c-0.2-1.41-0.3-2.53-0.3-3.34c0-2.79,1.48-4.19,4.43-4.19
						c3.3,0,4.95,5.09,4.95,15.26c0,0.22-0.02,1.82-0.06,4.79C785.71,1808.9,785.64,1815.3,785.64,1817.8z"/><path fill="#fff" d="M847.23,1789.4c-0.97,0-3.63-0.28-7.98-0.85c-0.28,3.72-0.43,8.67-0.43,14.84l-0.03,13.62
						c2.69-0.06,5.43-0.09,8.22-0.09c1.22,0,2.22,0.41,3.02,1.21c0.8,0.81,1.2,1.78,1.2,2.91s-0.41,2.1-1.23,2.9s-1.84,1.2-3.09,1.2
						c-1.15,0-2.89,0.02-5.21,0.08c-2.32,0.05-4.05,0.08-5.21,0.08c-1.37,0-3.41,0.18-6.14,0.53c-2.73,0.35-4.77,0.53-6.14,0.53
						c-1.24,0-2.27-0.4-3.09-1.2c-0.82-0.8-1.23-1.76-1.23-2.9c0-1.13,0.43-2.1,1.28-2.91s1.93-1.21,3.23-1.21
						c1.47,0,3.41-0.15,5.81-0.46c-0.04-2.39-0.06-6.96-0.06-13.71c0-5.5,0.2-10.75,0.61-15.75l-6.58,0.18
						c-1.22,0-2.23-0.39-3.05-1.18c-0.82-0.79-1.23-1.77-1.23-2.94c0-1.19,0.39-2.16,1.18-2.91c0.72-0.69,1.62-1.08,2.68-1.18
						c1.72-0.16,4.72-0.24,8.99-0.24c3.84,0,8.79,0.42,14.85,1.27c2.41,0.34,3.62,1.74,3.62,4.19c0,1.3-0.47,2.32-1.4,3.06
						C849.07,1789.09,848.21,1789.4,847.23,1789.4z"/><path fill="#fff" d="M902.65,1817.8c0,1.01-0.17,2.61-0.51,4.79c-0.41,2.61-1.88,3.91-4.43,3.91c-1.42,0-3.02-0.8-4.8-2.4
						c-7.79-7.02-16.58-16.86-26.37-29.52c-0.12,5.26-0.18,8.48-0.18,9.68c0,1.6,0.04,4,0.11,7.22c0.07,3.22,0.1,5.62,0.1,7.22
						c0,5.97-1.45,8.95-4.37,8.95c-1.48,0-2.66-0.45-3.55-1.37c-0.79-0.81-1.18-1.79-1.18-2.94c0-0.81,0.07-2.03,0.2-3.67
						c0.13-1.64,0.2-2.86,0.2-3.67c0-1.19,0.04-2.98,0.12-5.37c0.08-2.39,0.12-4.18,0.12-5.37c0-1.27-0.03-3.2-0.09-5.76
						c-0.06-2.57-0.09-4.49-0.09-5.76c0-1.21-0.12-3.02-0.36-5.43c-0.24-2.41-0.36-4.22-0.36-5.43c0-1.21,0.52-2.3,1.56-3.25
						c1.04-0.95,2.23-1.43,3.57-1.43c1.5,0,3.15,1.3,4.97,3.88c9.19,13.11,18.25,23.8,27.19,32.07c0.02-0.65,0.03-2.18,0.03-4.61
						c0-9.97-0.1-16.7-0.3-20.18c-0.04-0.59-0.17-1.68-0.39-3.28c-0.2-1.41-0.3-2.53-0.3-3.34c0-2.79,1.48-4.19,4.43-4.19
						c3.3,0,4.95,5.09,4.95,15.26c0,0.22-0.02,1.82-0.06,4.79C902.71,1808.9,902.65,1815.3,902.65,1817.8z"/><path fill="#030047" d="M856.09,1562.43c5.16,8.99,2.13,20.43-6.86,25.59c-8.94,5.16-20.38,2.13-25.54-6.86
						c-5.16-8.94-2.13-20.38,6.86-25.54C839.49,1550.4,850.92,1553.49,856.09,1562.43z"/><path fill="#030047" d="M771.12,1562.43c5.16,8.99,2.13,20.43-6.86,25.59c-8.94,5.16-20.38,2.13-25.54-6.86
						c-5.21-8.94-2.13-20.38,6.81-25.54C754.52,1550.4,765.96,1553.49,771.12,1562.43z"/><path fill="#030047" d="M934.24,1588.02c-8.99,5.16-20.43,2.13-25.59-6.86c-5.16-8.94-2.13-20.38,6.86-25.54
						c8.94-5.21,20.38-2.13,25.54,6.81C946.27,1571.42,943.18,1582.86,934.24,1588.02z"/><path fill="#030047" d="M601.18,1562.43c5.16,8.99,2.07,20.43-6.86,25.59c-8.94,5.16-20.38,2.13-25.59-6.86
						c-5.16-8.94-2.07-20.38,6.86-25.54C584.53,1550.4,596.02,1553.49,601.18,1562.43z"/><path fill="#030047" d="M686.15,1562.43c5.16,8.99,2.13,20.43-6.86,25.59c-8.94,5.16-20.38,2.13-25.59-6.86
						c-5.16-8.94-2.08-20.38,6.86-25.54C669.55,1550.4,680.99,1553.49,686.15,1562.43z"/><path fill="#fff" d="M1803.74,1381.37l-119.66,230.06l-364.08-34.8c-0.05,0-0.05,0-0.05,0
								c-29.42-12.5-70.19-11.21-90.83-18.66c-46.68-16.81-123.22-37.94-166.5-49.6c-16.71-4.5-33.61,6.4-36.46,23.47l0,0
								c-1.99,11.91,3.54,23.82,13.93,29.99l66.99,39.81c-38.73,11.92-24.42,52.78-24.42,52.78c-26.44,14.68-9.26,50.65-9.26,50.65
								c-12.02,5.85-14.42,16.76-13.14,27.45c1.97,16.71,13.46,30.86,28.94,37.46l96.62,41.34c2.45,1.06,4.95,1.54,7.45,1.54
								c8.09,0,15.7-5.27,18.14-13.57c2.39-7.98-0.69-16.55-7.61-21.12l-2.18-1.49l518.16,114.6
								c61.5,12.24,123.49-18.46,151.05-74.75l154.35-315.61L1803.74,1381.37z"/><path fill="#030047" d="M1746.72,1897.94c-9.18,0-18.45-0.89-27.71-2.74l-505.27-111.75c2.61,5.1,3.25,11.15,1.5,16.99
								c-2.85,9.66-11.89,16.41-21.97,16.41c-3.14,0-6.18-0.63-9.04-1.87l-96.6-41.33c-17.24-7.35-29.25-22.93-31.34-40.66
								c-1.6-13.37,2.55-23.54,12.01-29.63c-5.52-13.96-8.96-38.12,9.67-50.74c-1.64-6.4-4.27-21.44,2.48-34.81
								c3.7-7.32,9.59-12.98,17.58-16.89l-59.99-35.65c-11.89-7.07-18.1-20.44-15.83-34.08c1.55-9.26,6.96-17.48,14.84-22.54
								c7.87-5.05,17.56-6.56,26.6-4.12c75.87,20.45,131.99,37.17,166.81,49.7c8.38,3.02,20.85,4.61,34.04,6.3
								c18.38,2.34,39.18,5,56.48,12.23l360.79,34.46l118.41-227.67c0.49-0.95,1.35-1.66,2.36-1.97c1.02-0.31,2.13-0.21,3.07,0.3
								l221.44,119.55c1.89,1.02,2.63,3.34,1.69,5.26l-154.35,315.61C1850.25,1867.66,1800.15,1897.93,1746.72,1897.94z
								 M1201.62,1772.69c0.29,0,0.57,0.03,0.86,0.09l518.16,114.6c59.53,11.84,119.87-18,146.6-72.61l152.66-312.17l-214.5-115.8
								l-117.78,226.46c-0.75,1.44-2.29,2.28-3.92,2.13l-364.08-34.8c-0.41-0.04-0.86-0.14-1.23-0.3
								c-16.39-6.96-36.84-9.57-54.88-11.87c-13.64-1.74-26.53-3.39-35.74-6.71c-34.61-12.46-90.52-29.12-166.18-49.51
								c-6.96-1.88-14.15-0.76-20.2,3.13c-6,3.85-10.11,10.1-11.28,17.14c-1.74,10.37,2.99,20.54,12.02,25.91l66.99,39.81
								c1.36,0.81,2.11,2.34,1.93,3.9c-0.19,1.57-1.28,2.88-2.79,3.34c-9.89,3.04-16.83,8.39-20.64,15.9
								c-7.15,14.11-1.24,31.57-1.18,31.75c0.63,1.83-0.14,3.86-1.83,4.8c-22.83,12.67-8.22,44.11-7.6,45.45
								c0.94,1.98,0.11,4.35-1.85,5.3c-8.72,4.25-12.3,11.9-10.92,23.39c1.75,14.9,11.92,28.03,26.54,34.26l96.63,41.34
								c1.87,0.81,3.84,1.22,5.88,1.22c6.57,0,12.45-4.4,14.31-10.71c1.9-6.35-0.5-13.04-5.99-16.66l-2.23-1.52
								c-1.58-1.08-2.17-3.13-1.41-4.88C1198.6,1773.61,1200.06,1772.69,1201.62,1772.69z"/><line x1="1684.09" x2="1756.19" y1="1611.4" y2="1604.92" fill="#fff"/><path fill="#030047" d="M1684.09,1615.39c-2.04,0-3.78-1.56-3.97-3.63c-0.2-2.2,1.42-4.13,3.62-4.33l72.1-6.49
								c2.25-0.2,4.14,1.42,4.33,3.62c0.2,2.2-1.42,4.13-3.62,4.33l-72.1,6.49C1684.33,1615.39,1684.21,1615.39,1684.09,1615.39z"/><line x1="1201.62" x2="1139.9" y1="1776.71" y2="1750.91" fill="#fff"/><path fill="#030047" d="M1201.62,1780.7c-0.51,0-1.03-0.1-1.54-0.31l-61.72-25.8c-2.04-0.85-2.99-3.19-2.15-5.22
								c0.86-2.04,3.19-2.99,5.22-2.14l61.72,25.8c2.04,0.85,2.99,3.19,2.15,5.22C1204.66,1779.78,1203.18,1780.7,1201.62,1780.7z"/><line x1="1082.66" x2="1118.81" y1="1654.43" y2="1667.1" fill="#fff"/><path fill="#030047" d="M1118.81,1671.09c-0.44,0-0.88-0.07-1.32-0.23l-36.15-12.67c-2.08-0.73-3.17-3.01-2.45-5.09
								c0.73-2.08,3-3.18,5.09-2.45l36.15,12.67c2.08,0.73,3.17,3.01,2.45,5.09C1122,1670.06,1120.45,1671.09,1118.81,1671.09z"/><line x1="1073.37" x2="1102.16" y1="1705.08" y2="1712.06" fill="#fff"/><path fill="#030047" d="M1102.16,1716.05c-0.31,0-0.63-0.04-0.95-0.11l-28.78-6.97c-2.14-0.52-3.46-2.68-2.94-4.82
								c0.52-2.14,2.68-3.45,4.82-2.94l28.78,6.97c2.14,0.52,3.46,2.68,2.94,4.82C1105.59,1714.82,1103.96,1716.05,1102.16,1716.05z
								"/><g><path fill="#030047" d="M1149,1617.94c-0.37,0-0.75-0.05-1.13-0.16l-41.92-12.33c-2.11-0.62-3.32-2.84-2.7-4.95
							c0.62-2.11,2.81-3.33,4.96-2.7l41.92,12.33c2.11,0.62,3.32,2.84,2.7,4.95C1152.32,1616.81,1150.73,1617.94,1149,1617.94z"/></g><g><path fill="#605efd" d="M2088.6,1390.31c0,17.03-2.71,34.26-8.35,51.02l-55.07,173.71l-33.04-17.34l-112-58.9l-138.81-72.94
						l122.42-233.89l59.27-1.92c35.81-1.17,70.97,9.68,99.92,30.86C2065.03,1291.72,2088.6,1340.19,2088.6,1390.31z"/></g><g opacity=".4"><path fill="#fff" d="M2016.83,1544.98c0,21.18-9.58,40.12-24.69,52.73l-112-58.9c3.09-34.95,32.4-62.36,68.16-62.36
						C1986.18,1476.45,2016.83,1507.15,2016.83,1544.98z"/></g><g><path fill="#030047" d="M2025.15,1619.03c-0.64,0-1.28-0.15-1.85-0.46l-283.8-149.18c-1.95-1.02-2.7-3.43-1.68-5.38l89.24-170.47
						c1.02-1.95,3.42-2.71,5.38-1.68c1.95,1.02,2.71,3.43,1.68,5.39l-87.39,166.94l276.06,145.12l52.17-163.2
						c0.68-2.1,2.91-3.26,5.02-2.59c2.1,0.67,3.26,2.92,2.59,5.02l-53.62,167.73c-0.36,1.12-1.2,2.03-2.29,2.48
						C2026.18,1618.93,2025.67,1619.03,2025.15,1619.03z"/></g><g><path fill="#605efd" d="M1279.64,764.12c0,0-82.45-58.39-123.47-180.72c-28.46-84.87-44.23-184.88-41.75-257.82
						c96.97-5.11,208.11-36.91,271.54-57.58c48.84,45.47,136.29,121.1,222.11,166.56c-29,69.58-83.82,154.72-141.97,218.63
						C1395.02,731.31,1279.64,764.12,1279.64,764.12z"/></g><g><circle cx="1342.01" cy="495.07" r="97.66" fill="#fff"/></g><g><polyline fill="#fff" points="1296.19 492.33 1316.68 524.42 1392.65 475.93"/><polygon fill="#030047" points="1313.44 539.11 1287.23 498.05 1305.16 486.6 1319.92 509.72 1386.92 466.96 1398.38 484.9"/></g><g><path fill="#ffcc3d" d="M2140.72,1866.21l-28.5,20.76c-13.38,9.66-32.03,6.73-41.71-6.55l-20.77-28.5
				c-9.68-13.29-6.75-31.94,6.53-41.61l28.52-20.86c13.29-9.68,31.93-6.75,41.71,6.55l20.75,28.6
				C2156.94,1837.88,2154.01,1856.53,2140.72,1866.21z"/></g><g><path fill="#ffcc3d" d="M2110.91,1171.06l-10.21,17.76c-4.81,8.29-15.4,11.15-23.68,6.4l-17.76-10.21
				c-8.28-4.76-11.14-15.35-6.38-23.62l10.19-17.82c4.76-8.28,15.34-11.14,23.68-6.4l17.78,10.26
				C2112.8,1152.2,2115.66,1162.78,2110.91,1171.06z"/></g><g><path fill="#ffcc3d" d="M833.96,672.65l-10.21,17.76c-4.81,8.29-15.4,11.15-23.68,6.4l-17.76-10.21
				c-8.28-4.76-11.14-15.35-6.38-23.62l10.19-17.82c4.76-8.28,15.34-11.14,23.68-6.4l17.78,10.26
				C835.86,653.78,838.72,664.37,833.96,672.65z"/></g><g><path fill="#ffcc3d" d="M1706.67,566.29l-10.21,17.76c-4.81,8.29-15.4,11.15-23.68,6.4l-17.76-10.21
				c-8.28-4.76-11.14-15.35-6.38-23.62l10.19-17.82c4.76-8.28,15.34-11.14,23.68-6.4l17.78,10.26
				C1708.57,547.42,1711.43,558.01,1706.67,566.29z"/></g><g opacity=".4"><circle cx="1956.49" cy="1345.44" r="16.01" fill="#fff"/></g><g opacity=".4"><circle cx="1824.43" cy="1413.38" r="20.68" fill="#fff"/></g><g opacity=".4"><circle cx="1566.83" cy="1366.69" r="15.95" fill="#fff"/></g><g opacity=".4"><circle cx="1633.1" cy="1497.98" r="21.06" fill="#fff"/></g><g opacity=".4"><circle cx="1496.61" cy="1505.78" r="28.86" fill="#fff"/></g><g opacity=".4"><circle cx="1352.15" cy="1323.6" r="16.17" fill="#fff"/></g><g opacity=".4"><circle cx="1365.89" cy="1438.54" r="16.04" fill="#fff"/></g><g opacity=".4"><circle cx="1390.32" cy="1874.42" r="21.73" fill="#fff"/></g><g opacity=".4"><circle cx="1518.35" cy="1896.15" r="21.73" fill="#fff"/></g><g opacity=".4"><circle cx="1633.48" cy="1713.28" r="31.24" fill="#fff"/></g><g opacity=".4"><circle cx="1502.04" cy="1298.16" r="23.43" fill="#fff"/></g></svg>